<mxfile host="65bd71144e">
    <diagram id="Ht1M8jgEwFfnCIfOTk4-" name="Page-1">
        <mxGraphModel dx="1595" dy="1222" grid="1" gridSize="10" guides="1" tooltips="1" connect="1" arrows="1" fold="1" page="1" pageScale="1" pageWidth="1169" pageHeight="827" math="0" shadow="0">
            <root>
                <mxCell id="0"/>
                <mxCell id="1" parent="0"/>
                <mxCell id="QMhSMaMKcqBBR_qiJLq--2" value="AWS Cloud" style="points=[[0,0],[0.25,0],[0.5,0],[0.75,0],[1,0],[1,0.25],[1,0.5],[1,0.75],[1,1],[0.75,1],[0.5,1],[0.25,1],[0,1],[0,0.75],[0,0.5],[0,0.25]];outlineConnect=0;gradientColor=none;html=1;whiteSpace=wrap;fontSize=12;fontStyle=0;shape=mxgraph.aws4.group;grIcon=mxgraph.aws4.group_aws_cloud_alt;strokeColor=#232F3E;fillColor=none;verticalAlign=top;align=left;spacingLeft=30;fontColor=#FFFFFF;dashed=0;" parent="1" vertex="1">
                    <mxGeometry x="240" y="114.69" width="560" height="520.12" as="geometry"/>
                </mxCell>
                <mxCell id="hec2xzI7WDzbk64Mdq_b-20" value="VPC" style="points=[[0,0],[0.25,0],[0.5,0],[0.75,0],[1,0],[1,0.25],[1,0.5],[1,0.75],[1,1],[0.75,1],[0.5,1],[0.25,1],[0,1],[0,0.75],[0,0.5],[0,0.25]];outlineConnect=0;gradientColor=none;html=1;whiteSpace=wrap;fontSize=12;fontStyle=1;shape=mxgraph.aws4.group;grIcon=mxgraph.aws4.group_vpc;strokeColor=#248814;fillColor=none;verticalAlign=top;align=left;spacingLeft=30;fontColor=#AAB7B8;dashed=0;" parent="1" vertex="1">
                    <mxGeometry x="390" y="180" width="390" height="400" as="geometry"/>
                </mxCell>
                <mxCell id="hec2xzI7WDzbk64Mdq_b-19" value="Public subnet" style="points=[[0,0],[0.25,0],[0.5,0],[0.75,0],[1,0],[1,0.25],[1,0.5],[1,0.75],[1,1],[0.75,1],[0.5,1],[0.25,1],[0,1],[0,0.75],[0,0.5],[0,0.25]];outlineConnect=0;gradientColor=none;html=1;whiteSpace=wrap;fontSize=12;fontStyle=1;shape=mxgraph.aws4.group;grIcon=mxgraph.aws4.group_security_group;grStroke=0;strokeColor=#248814;fillColor=#E9F3E6;verticalAlign=top;align=left;spacingLeft=30;fontColor=#248814;dashed=0;" parent="1" vertex="1">
                    <mxGeometry x="550" y="389.38" width="220" height="161.25" as="geometry"/>
                </mxCell>
                <mxCell id="hec2xzI7WDzbk64Mdq_b-3" value="Public subnet" style="points=[[0,0],[0.25,0],[0.5,0],[0.75,0],[1,0],[1,0.25],[1,0.5],[1,0.75],[1,1],[0.75,1],[0.5,1],[0.25,1],[0,1],[0,0.75],[0,0.5],[0,0.25]];outlineConnect=0;gradientColor=none;html=1;whiteSpace=wrap;fontSize=12;fontStyle=1;shape=mxgraph.aws4.group;grIcon=mxgraph.aws4.group_security_group;grStroke=0;strokeColor=#248814;fillColor=#E9F3E6;verticalAlign=top;align=left;spacingLeft=30;fontColor=#248814;dashed=0;" parent="1" vertex="1">
                    <mxGeometry x="550" y="209.38" width="220" height="161.25" as="geometry"/>
                </mxCell>
                <mxCell id="hec2xzI7WDzbk64Mdq_b-17" value="ECS Service" style="fillColor=none;strokeColor=#5A6C86;dashed=1;verticalAlign=top;fontStyle=1;fontColor=#5A6C86;" parent="1" vertex="1">
                    <mxGeometry x="600" y="239.38" width="130" height="290" as="geometry"/>
                </mxCell>
                <mxCell id="hec2xzI7WDzbk64Mdq_b-5" value="&lt;b&gt;Application&lt;br&gt;Load&lt;br&gt;Balancer&lt;/b&gt;" style="outlineConnect=0;dashed=0;verticalLabelPosition=bottom;verticalAlign=top;align=center;html=1;shape=mxgraph.aws3.application_load_balancer;fillColor=#F58534;gradientColor=none;" parent="1" vertex="1">
                    <mxGeometry x="440" y="338.75" width="69" height="72" as="geometry"/>
                </mxCell>
                <mxCell id="hec2xzI7WDzbk64Mdq_b-8" value="&lt;b&gt;Internet&amp;nbsp;&lt;br&gt;Gateway&lt;/b&gt;" style="outlineConnect=0;dashed=0;verticalLabelPosition=bottom;verticalAlign=top;align=center;html=1;shape=mxgraph.aws3.internet_gateway;fillColor=#F58536;gradientColor=none;" parent="1" vertex="1">
                    <mxGeometry x="284" y="338.75" width="69" height="72" as="geometry"/>
                </mxCell>
                <mxCell id="hec2xzI7WDzbk64Mdq_b-9" value="ECS Task" style="outlineConnect=0;fontColor=#232F3E;gradientColor=#F78E04;gradientDirection=north;fillColor=#D05C17;strokeColor=#ffffff;dashed=0;verticalLabelPosition=bottom;verticalAlign=top;align=center;html=1;fontSize=12;fontStyle=1;aspect=fixed;shape=mxgraph.aws4.resourceIcon;resIcon=mxgraph.aws4.ecs;" parent="1" vertex="1">
                    <mxGeometry x="630" y="269.38" width="70" height="70" as="geometry"/>
                </mxCell>
                <mxCell id="hec2xzI7WDzbk64Mdq_b-14" value="ECS Task" style="outlineConnect=0;fontColor=#232F3E;gradientColor=#F78E04;gradientDirection=north;fillColor=#D05C17;strokeColor=#ffffff;dashed=0;verticalLabelPosition=bottom;verticalAlign=top;align=center;html=1;fontSize=12;fontStyle=1;aspect=fixed;shape=mxgraph.aws4.resourceIcon;resIcon=mxgraph.aws4.ecs;" parent="1" vertex="1">
                    <mxGeometry x="630" y="419.38" width="70" height="70" as="geometry"/>
                </mxCell>
                <mxCell id="hec2xzI7WDzbk64Mdq_b-23" value="" style="edgeStyle=orthogonalEdgeStyle;html=1;endArrow=block;elbow=vertical;startArrow=none;endFill=1;strokeColor=#545B64;rounded=0;entryX=0;entryY=0.5;entryDx=0;entryDy=0;entryPerimeter=0;" parent="1" source="hec2xzI7WDzbk64Mdq_b-29" target="hec2xzI7WDzbk64Mdq_b-8" edge="1">
                    <mxGeometry width="100" relative="1" as="geometry">
                        <mxPoint x="320" y="375" as="sourcePoint"/>
                        <mxPoint x="350" y="460" as="targetPoint"/>
                    </mxGeometry>
                </mxCell>
                <mxCell id="hec2xzI7WDzbk64Mdq_b-26" value="" style="edgeStyle=orthogonalEdgeStyle;html=1;endArrow=block;elbow=vertical;startArrow=none;endFill=1;strokeColor=#545B64;rounded=0;entryX=0;entryY=0.5;entryDx=0;entryDy=0;entryPerimeter=0;exitX=1;exitY=0.5;exitDx=0;exitDy=0;exitPerimeter=0;" parent="1" source="hec2xzI7WDzbk64Mdq_b-8" target="hec2xzI7WDzbk64Mdq_b-5" edge="1">
                    <mxGeometry width="100" relative="1" as="geometry">
                        <mxPoint x="430" y="375" as="sourcePoint"/>
                        <mxPoint x="410" y="470" as="targetPoint"/>
                    </mxGeometry>
                </mxCell>
                <mxCell id="hec2xzI7WDzbk64Mdq_b-27" value="" style="edgeStyle=orthogonalEdgeStyle;html=1;endArrow=block;elbow=vertical;startArrow=none;endFill=1;strokeColor=#545B64;rounded=0;exitX=1;exitY=0.5;exitDx=0;exitDy=0;exitPerimeter=0;" parent="1" source="hec2xzI7WDzbk64Mdq_b-5" target="hec2xzI7WDzbk64Mdq_b-14" edge="1">
                    <mxGeometry width="100" relative="1" as="geometry">
                        <mxPoint x="340" y="650" as="sourcePoint"/>
                        <mxPoint x="440" y="650" as="targetPoint"/>
                        <Array as="points">
                            <mxPoint x="580" y="375"/>
                            <mxPoint x="580" y="454"/>
                        </Array>
                    </mxGeometry>
                </mxCell>
                <mxCell id="hec2xzI7WDzbk64Mdq_b-28" value="" style="edgeStyle=orthogonalEdgeStyle;html=1;endArrow=block;elbow=vertical;startArrow=none;endFill=1;strokeColor=#545B64;rounded=0;exitX=1;exitY=0.5;exitDx=0;exitDy=0;exitPerimeter=0;" parent="1" source="hec2xzI7WDzbk64Mdq_b-5" target="hec2xzI7WDzbk64Mdq_b-9" edge="1">
                    <mxGeometry width="100" relative="1" as="geometry">
                        <mxPoint x="549" y="384.8800000000001" as="sourcePoint"/>
                        <mxPoint x="675" y="429.3800000000001" as="targetPoint"/>
                        <Array as="points">
                            <mxPoint x="580" y="375"/>
                            <mxPoint x="580" y="304"/>
                        </Array>
                    </mxGeometry>
                </mxCell>
                <mxCell id="hec2xzI7WDzbk64Mdq_b-29" value="&lt;b&gt;Internet&lt;/b&gt;" style="outlineConnect=0;dashed=0;verticalLabelPosition=bottom;verticalAlign=top;align=center;html=1;shape=mxgraph.aws3.internet_2;fillColor=#F58536;gradientColor=none;shadow=0;strokeWidth=3;" parent="1" vertex="1">
                    <mxGeometry x="130" y="347.75" width="79.5" height="54" as="geometry"/>
                </mxCell>
                <mxCell id="pHcIRBHA2WIQ91QN2iAn-1" value="&lt;b&gt;Elastic&amp;nbsp;&lt;br&gt;Container&lt;br&gt;Registry&lt;/b&gt;" style="outlineConnect=0;fontColor=#FFFFFF;gradientColor=#F78E04;gradientDirection=north;fillColor=#D05C17;strokeColor=#ffffff;dashed=0;verticalLabelPosition=bottom;verticalAlign=top;align=center;html=1;fontSize=12;fontStyle=0;aspect=fixed;shape=mxgraph.aws4.resourceIcon;resIcon=mxgraph.aws4.ecr;" parent="1" vertex="1">
                    <mxGeometry x="284" y="199.38" width="70" height="70" as="geometry"/>
                </mxCell>
                <mxCell id="e7PrJyeByHnZO_eEinYz-1" value="&lt;b&gt;Cognito UserPool&lt;/b&gt;" style="outlineConnect=0;fontColor=#FFFFFF;gradientColor=#F54749;gradientDirection=north;fillColor=#C7131F;strokeColor=#ffffff;dashed=0;verticalLabelPosition=bottom;verticalAlign=top;align=center;html=1;fontSize=12;fontStyle=0;aspect=fixed;shape=mxgraph.aws4.resourceIcon;resIcon=mxgraph.aws4.cognito;" parent="1" vertex="1">
                    <mxGeometry x="280" y="480" width="78" height="78" as="geometry"/>
                </mxCell>
            </root>
        </mxGraphModel>
    </diagram>
</mxfile>